:version	1.10
:name	0101
:units
	mass	kg
	length	m
	angle	deg
:documentation
	fps:30
:root
	axis	XYZ
	order	TX	TY	TZ	RX	RY	RZ
	position	0.00	0.00	0.00
	orientation	0.00	0.00	0.00
:bonedata
	begin
		id	1
		name	Head
		direction	-18.5	116.2	-38.8
		length	123.9
		axis	0.0	0.0	0.0	XYZ
		dof	rx	ry	rz
		limits	(-inf	inf)
			(-inf	inf)
			(-inf	inf)
	end
	begin
		id	2
		name	Neck
		direction	-1.6	89.5	-15.3
		length	90.8
		axis	0.0	0.0	0.0	XYZ
		dof	rx	ry	rz
		limits	(-inf	inf)
			(-inf	inf)
			(-inf	inf)
	end
	begin
		id	3
		name	LeftCollar
		direction	-5.0	276.0	-47.2
		length	280.1
		axis	0.0	0.0	0.0	XYZ
		dof	rx	ry	rz
		limits	(-inf	inf)
			(-inf	inf)
			(-inf	inf)
	end
	begin
		id	4
		name	Torso
		direction	4.0	199.4	8.5
		length	199.7
		axis	0.0	0.0	0.0	XYZ
		dof	rx	ry	rz
		limits	(-inf	inf)
			(-inf	inf)
			(-inf	inf)
	end
	begin
		id	5
		name	LeftShoulder
		direction	170.7	-14.1	-44.7
		length	177.0
		axis	0.0	0.0	0.0	XYZ
		dof	rx	ry	rz
		limits	(-inf	inf)
			(-inf	inf)
			(-inf	inf)
	end
	begin
		id	6
		name	RightShoulder
		direction	-174.2	6.3	52.4
		length	182.0
		axis	0.0	0.0	0.0	XYZ
		dof	rx	ry	rz
		limits	(-inf	inf)
			(-inf	inf)
			(-inf	inf)
	end
	begin
		id	7
		name	LeftElbow
		direction	55.3	-271.7	26.6
		length	278.5
		axis	0.0	0.0	0.0	XYZ
		dof	rx	ry	rz
		limits	(-inf	inf)
			(-inf	inf)
			(-inf	inf)
	end
	begin
		id	8
		name	RightElbow
		direction	-37.0	-268.0	66.2
		length	278.5
		axis	0.0	0.0	0.0	XYZ
		dof	rx	ry	rz
		limits	(-inf	inf)
			(-inf	inf)
			(-inf	inf)
	end
	begin
		id	9
		name	LeftWrist
		direction	69.1	-260.5	-128.7
		length	298.7
		axis	0.0	0.0	0.0	XYZ
		dof	rx	ry	rz
		limits	(-inf	inf)
			(-inf	inf)
			(-inf	inf)
	end
	begin
		id	10
		name	RightWrist
		direction	-79.9	-277.4	-76.9
		length	298.7
		axis	0.0	0.0	0.0	XYZ
		dof	rx	ry	rz
		limits	(-inf	inf)
			(-inf	inf)
			(-inf	inf)
	end
	begin
		id	11
		name	LeftHand
		direction	13.8	-52.1	-25.7
		length	59.7
		axis	0.0	0.0	0.0	XYZ
		dof	rx	ry	rz
		limits	(-inf	inf)
			(-inf	inf)
			(-inf	inf)
	end
	begin
		id	12
		name	RightHand
		direction	-16.0	-55.5	-15.4
		length	59.7
		axis	0.0	0.0	0.0	XYZ
		dof	rx	ry	rz
		limits	(-inf	inf)
			(-inf	inf)
			(-inf	inf)
	end
	begin
		id	13
		name	LeftHip
		direction	117.3	-70.1	12.8
		length	137.3
		axis	0.0	0.0	0.0	XYZ
		dof	rx	ry	rz
		limits	(-inf	inf)
			(-inf	inf)
			(-inf	inf)
	end
	begin
		id	14
		name	RightHip
		direction	-108.5	-76.7	41.0
		length	139.0
		axis	0.0	0.0	0.0	XYZ
		dof	rx	ry	rz
		limits	(-inf	inf)
			(-inf	inf)
			(-inf	inf)
	end
	begin
		id	15
		name	LeftKnee
		direction	-0.2	-428.3	-95.5
		length	438.9
		axis	0.0	0.0	0.0	XYZ
		dof	rx	ry	rz
		limits	(-inf	inf)
			(-inf	inf)
			(-inf	inf)
	end
	begin
		id	16
		name	RightKnee
		direction	16.9	-434.8	-56.9
		length	438.9
		axis	0.0	0.0	0.0	XYZ
		dof	rx	ry	rz
		limits	(-inf	inf)
			(-inf	inf)
			(-inf	inf)
	end
	begin
		id	17
		name	LeftAnkle
		direction	51.1	-389.3	75.6
		length	399.8
		axis	0.0	0.0	0.0	XYZ
		dof	rx	ry	rz
		limits	(-inf	inf)
			(-inf	inf)
			(-inf	inf)
	end
	begin
		id	18
		name	RightAnkle
		direction	-36.9	-388.8	85.6
		length	399.8
		axis	0.0	0.0	0.0	XYZ
		dof	rx	ry	rz
		limits	(-inf	inf)
			(-inf	inf)
			(-inf	inf)
	end
:hierarchy
	begin
		Neck	Head
		LeftCollar	Neck	LeftShoulder	RightShoulder
		Torso	LeftCollar
		root	Torso	LeftHip	RightHip
		LeftShoulder	LeftElbow
		RightShoulder	RightElbow
		LeftElbow	LeftWrist
		RightElbow	RightWrist
		LeftWrist	LeftHand
		RightWrist	RightHand
		LeftHip	LeftKnee
		RightHip	RightKnee
		LeftKnee	LeftAnkle
		RightKnee	RightAnkle
	end

:FULLY-SPECIFIED
:DEGREES
70
Head	-9.05	17.23	-1.68
Neck	-9.05	17.23	-1.68
LeftCollar	-9.05	17.23	-1.68
Torso	-9.05	17.23	-1.68
root	144.27	16.65	2751.87	-3.50	6.98	0.64
LeftShoulder	8.26	-8.96	-77.18
RightShoulder	37.73	22.86	75.78
LeftElbow	8.96	24.23	-72.19
RightElbow	34.32	-0.65	58.61
LeftWrist	9.09	25.97	-71.88
RightWrist	34.34	-1.64	57.93
LeftHand	9.09	25.97	-71.88
RightHand	34.34	-1.64	57.93
LeftHip	5.74	33.65	1.44
RightHip	1.40	-34.58	1.77
LeftKnee	-8.57	33.65	1.44
RightKnee	-11.61	-34.58	1.77
LeftAnkle	-8.57	33.65	1.44
RightAnkle	-11.61	-34.58	1.77
71
Head	-8.72	17.91	-1.35
Neck	-8.72	17.91	-1.35
LeftCollar	-8.72	17.91	-1.35
Torso	-8.72	17.91	-1.35
root	145.22	17.95	2749.78	-2.67	6.73	0.53
LeftShoulder	6.91	-8.60	-77.05
RightShoulder	31.21	21.81	79.48
LeftElbow	7.46	23.63	-73.00
RightElbow	28.78	-2.15	65.62
LeftWrist	7.56	25.32	-72.76
RightWrist	28.81	-3.44	64.90
LeftHand	7.56	25.32	-72.76
RightHand	28.81	-3.44	64.90
LeftHip	6.14	33.66	1.31
RightHip	3.03	-32.98	1.66
LeftKnee	-9.36	33.66	1.31
RightKnee	-13.23	-32.98	1.66
LeftAnkle	-9.36	33.66	1.31
RightAnkle	-13.23	-32.98	1.66
72
Head	-8.36	17.78	-0.77
Neck	-8.36	17.78	-0.77
LeftCollar	-8.36	17.78	-0.77
Torso	-8.36	17.78	-0.77
root	146.23	19.08	2747.31	-2.73	6.52	0.58
LeftShoulder	5.20	-8.20	-77.35
RightShoulder	28.81	20.62	81.00
LeftElbow	5.59	22.93	-74.42
RightElbow	26.92	-4.91	67.55
LeftWrist	5.66	24.58	-74.24
RightWrist	26.99	-6.39	66.79
LeftHand	5.66	24.58	-74.24
RightHand	26.99	-6.39	66.79
LeftHip	5.83	34.00	1.24
RightHip	2.91	-32.67	1.78
LeftKnee	-9.00	34.00	1.24
RightKnee	-13.42	-32.67	1.78
LeftAnkle	-9.00	34.00	1.24
RightAnkle	-13.42	-32.67	1.78
73
Head	-8.36	17.78	-0.77
Neck	-8.36	17.78	-0.77
LeftCollar	-8.36	17.78	-0.77
Torso	-8.36	17.78	-0.77
root	146.23	19.08	2747.31	-2.73	6.52	0.58
LeftShoulder	5.20	-8.20	-77.35
RightShoulder	28.81	20.62	81.00
LeftElbow	5.59	22.93	-74.42
RightElbow	26.92	-4.91	67.55
LeftWrist	5.66	24.58	-74.24
RightWrist	26.99	-6.39	66.79
LeftHand	5.66	24.58	-74.24
RightHand	26.99	-6.39	66.79
LeftHip	5.83	34.00	1.24
RightHip	2.91	-32.67	1.78
LeftKnee	-9.00	34.00	1.24
RightKnee	-13.42	-32.67	1.78
LeftAnkle	-9.00	34.00	1.24
RightAnkle	-13.42	-32.67	1.78
74
Head	-8.06	16.95	-0.03
Neck	-8.06	16.95	-0.03
LeftCollar	-8.06	16.95	-0.03
Torso	-8.06	16.95	-0.03
root	147.12	20.16	2746.23	-2.62	6.51	0.59
LeftShoulder	2.12	-7.81	-78.08
RightShoulder	26.96	19.78	81.53
LeftElbow	2.25	21.28	-76.97
RightElbow	25.45	-6.83	68.53
LeftWrist	2.28	22.78	-76.91
RightWrist	25.54	-8.33	67.81
LeftHand	2.28	22.78	-76.91
RightHand	25.54	-8.33	67.81
LeftHip	5.90	34.42	1.24
RightHip	2.99	-32.41	1.76
LeftKnee	-8.76	34.42	1.24
RightKnee	-12.65	-32.41	1.76
LeftAnkle	-8.76	34.42	1.24
RightAnkle	-12.65	-32.41	1.76
75
Head	-8.06	16.95	-0.03
Neck	-8.06	16.95	-0.03
LeftCollar	-8.06	16.95	-0.03
Torso	-8.06	16.95	-0.03
root	147.12	20.16	2746.23	-2.62	6.51	0.59
LeftShoulder	2.12	-7.81	-78.08
RightShoulder	26.96	19.78	81.53
LeftElbow	2.25	21.28	-76.97
RightElbow	25.45	-6.83	68.53
LeftWrist	2.28	22.78	-76.91
RightWrist	25.54	-8.33	67.81
LeftHand	2.28	22.78	-76.91
RightHand	25.54	-8.33	67.81
LeftHip	5.90	34.42	1.24
RightHip	2.99	-32.41	1.76
LeftKnee	-8.76	34.42	1.24
RightKnee	-12.65	-32.41	1.76
LeftAnkle	-8.76	34.42	1.24
RightAnkle	-12.65	-32.41	1.76
76
Head	-8.06	16.95	-0.03
Neck	-8.06	16.95	-0.03
LeftCollar	-8.06	16.95	-0.03
Torso	-8.06	16.95	-0.03
root	147.12	20.16	2746.23	-2.62	6.51	0.59
LeftShoulder	2.12	-7.81	-78.08
RightShoulder	26.96	19.78	81.53
LeftElbow	2.25	21.28	-76.97
RightElbow	25.45	-6.83	68.53
LeftWrist	2.28	22.78	-76.91
RightWrist	25.54	-8.33	67.81
LeftHand	2.28	22.78	-76.91
RightHand	25.54	-8.33	67.81
LeftHip	5.90	34.42	1.24
RightHip	2.99	-32.41	1.76
LeftKnee	-8.76	34.42	1.24
RightKnee	-12.65	-32.41	1.76
LeftAnkle	-8.76	34.42	1.24
RightAnkle	-12.65	-32.41	1.76
77
Head	-7.76	15.21	0.70
Neck	-7.76	15.21	0.70
LeftCollar	-7.76	15.21	0.70
Torso	-7.76	15.21	0.70
root	147.51	21.03	2745.87	-2.43	6.46	0.64
LeftShoulder	0.70	-7.69	-78.38
RightShoulder	25.59	18.67	81.76
LeftElbow	0.74	19.74	-78.03
RightElbow	24.50	-9.25	68.86
LeftWrist	0.74	21.20	-78.01
RightWrist	24.61	-10.68	68.20
LeftHand	0.74	21.20	-78.01
RightHand	24.61	-10.68	68.20
LeftHip	6.33	34.96	1.28
RightHip	3.02	-32.21	1.82
LeftKnee	-8.88	34.96	1.28
RightKnee	-12.79	-32.21	1.82
LeftAnkle	-8.88	34.96	1.28
RightAnkle	-12.79	-32.21	1.82
78
Head	-7.50	13.82	1.20
Neck	-7.50	13.82	1.20
LeftCollar	-7.50	13.82	1.20
Torso	-7.50	13.82	1.20
root	147.87	21.70	2745.80	-2.19	6.22	0.69
LeftShoulder	1.18	-7.72	-78.73
RightShoulder	25.56	17.72	82.01
LeftElbow	1.24	19.05	-78.17
RightElbow	24.69	-10.38	68.99
LeftWrist	1.25	20.64	-78.13
RightWrist	24.80	-11.55	68.44
LeftHand	1.25	20.64	-78.13
RightHand	24.80	-11.55	68.44
LeftHip	6.57	35.04	1.25
RightHip	3.11	-32.17	1.90
LeftKnee	-9.11	35.04	1.25
RightKnee	-13.27	-32.17	1.90
LeftAnkle	-9.11	35.04	1.25
RightAnkle	-13.27	-32.17	1.90
79
Head	-7.50	13.82	1.20
Neck	-7.50	13.82	1.20
LeftCollar	-7.50	13.82	1.20
Torso	-7.50	13.82	1.20
root	147.87	21.70	2745.80	-2.19	6.22	0.69
LeftShoulder	1.18	-7.72	-78.73
RightShoulder	25.56	17.72	82.01
LeftElbow	1.24	19.05	-78.17
RightElbow	24.69	-10.38	68.99
LeftWrist	1.25	20.64	-78.13
RightWrist	24.80	-11.55	68.44
LeftHand	1.25	20.64	-78.13
RightHand	24.80	-11.55	68.44
LeftHip	6.57	35.04	1.25
RightHip	3.11	-32.17	1.90
LeftKnee	-9.11	35.04	1.25
RightKnee	-13.27	-32.17	1.90
LeftAnkle	-9.11	35.04	1.25
RightAnkle	-13.27	-32.17	1.90
80
Head	-7.58	13.44	1.37
Neck	-7.58	13.44	1.37
LeftCollar	-7.58	13.44	1.37
Torso	-7.58	13.44	1.37
root	147.90	22.72	2746.43	-1.57	6.16	0.78
LeftShoulder	1.75	-7.92	-78.54
RightShoulder	25.47	17.17	82.45
LeftElbow	1.84	19.54	-77.68
RightElbow	24.89	-12.50	68.71
LeftWrist	1.86	21.29	-77.62
RightWrist	25.02	-13.70	68.14
LeftHand	1.86	21.29	-77.62
RightHand	25.02	-13.70	68.14
LeftHip	6.95	34.99	1.26
RightHip	3.28	-31.94	1.95
LeftKnee	-9.41	34.99	1.26
RightKnee	-13.81	-31.94	1.95
LeftAnkle	-9.41	34.99	1.26
RightAnkle	-13.81	-31.94	1.95
81
Head	-7.58	13.44	1.37
Neck	-7.58	13.44	1.37
LeftCollar	-7.58	13.44	1.37
Torso	-7.58	13.44	1.37
root	147.90	22.72	2746.43	-1.57	6.16	0.78
LeftShoulder	1.75	-7.92	-78.54
RightShoulder	25.47	17.17	82.45
LeftElbow	1.84	19.54	-77.68
RightElbow	24.89	-12.50	68.71
LeftWrist	1.86	21.29	-77.62
RightWrist	25.02	-13.70	68.14
LeftHand	1.86	21.29	-77.62
RightHand	25.02	-13.70	68.14
LeftHip	6.95	34.99	1.26
RightHip	3.28	-31.94	1.95
LeftKnee	-9.41	34.99	1.26
RightKnee	-13.81	-31.94	1.95
LeftAnkle	-9.41	34.99	1.26
RightAnkle	-13.81	-31.94	1.95
82
Head	-7.58	13.44	1.37
Neck	-7.58	13.44	1.37
LeftCollar	-7.58	13.44	1.37
Torso	-7.58	13.44	1.37
root	147.90	22.72	2746.43	-1.57	6.16	0.78
LeftShoulder	1.75	-7.92	-78.54
RightShoulder	25.47	17.17	82.45
LeftElbow	1.84	19.54	-77.68
RightElbow	24.89	-12.50	68.71
LeftWrist	1.86	21.29	-77.62
RightWrist	25.02	-13.70	68.14
LeftHand	1.86	21.29	-77.62
RightHand	25.02	-13.70	68.14
LeftHip	6.95	34.99	1.26
RightHip	3.28	-31.94	1.95
LeftKnee	-9.41	34.99	1.26
RightKnee	-13.81	-31.94	1.95
LeftAnkle	-9.41	34.99	1.26
RightAnkle	-13.81	-31.94	1.95
